# xmcd
#
# Track frame offsets:
#	150
#	16867
#	39307
#	57938
#	79059
#	100447
#	117937
#	138051
#	157016
#	174025
#	199781
#
# Disc length: 3827 seconds
#
# Revision: 1
# Processed by: cddbd v1.5.2PL0 Copyright (c) Steve Scherf et al.
# Submitted via: audiograbber 1.83.01
#
DISCID=810ef10b
DTITLE=The Staple Singers - Be Altitude: Respect yourself
DYEAR=1972
DGENRE=Soul
TTITLE0=this world
TTITLE1=respect yourself
TTITLE2=name the missing word
TTITLE3=i'll take you there
TTITLE4=this old town (people in this town)
TTITLE5=we the people
TTITLE6=are you shure
TTITLE7=who do you think you are (jesus christ the superstar) ?
TTITLE8=i'm just another soldier
TTITLE9=who
TTITLE10=multimedia track incl.: video, biography and pictures
EXTD=CD mit multimedia track. ZYX Music\nEAN 090204990511
EXTT0=
EXTT1=
EXTT2=
EXTT3=
EXTT4=
EXTT5=
EXTT6=
EXTT7=
EXTT8=
EXTT9=
EXTT10=
PLAYORDER=
